<svg xmlns="http://www.w3.org/2000/svg" xmlns:xlink="http://www.w3.org/1999/xlink" enable-background="new 0 0 32 32" height="32px" version="1.1" viewBox="0 0 32 32" width="32px" xml:space="preserve"><g id="_x3C_Layer_x3E_"/><g id="_x3C_Layer_x3E__1_"><g id="pos_terminal_x2C__contactless_payment_x2C__payment_x2C__Untact_1_"><g><g><path d="M11,31H3c-1.103,0-2-0.897-2-2V12c0-1.103,0.897-2,2-2h5.5C8.776,10,9,10.224,9,10.5S8.776,11,8.5,11H3      c-0.552,0-1,0.449-1,1v17c0,0.551,0.448,1,1,1h8c0.552,0,1-0.449,1-1v-2.5c0-0.276,0.224-0.5,0.5-0.5s0.5,0.224,0.5,0.5V29      C13,30.103,12.103,31,11,31z" fill="#000000"/></g><g><path d="M8.5,19h-5C3.224,19,3,18.776,3,18.5v-5C3,13.224,3.224,13,3.5,13h5C8.776,13,9,13.224,9,13.5      S8.776,14,8.5,14H4v4h4.5C8.776,18,9,18.224,9,18.5S8.776,19,8.5,19z" fill="#000000"/></g><g><path d="M10.5,28h-1C9.224,28,9,27.776,9,27.5S9.224,27,9.5,27h1c0.276,0,0.5,0.224,0.5,0.5S10.776,28,10.5,28z" fill="#000000"/></g><g><path d="M7.5,28h-1C6.224,28,6,27.776,6,27.5S6.224,27,6.5,27h1C7.776,27,8,27.224,8,27.5S7.776,28,7.5,28z" fill="#000000"/></g><g><path d="M4.5,28h-1C3.224,28,3,27.776,3,27.5S3.224,27,3.5,27h1C4.776,27,5,27.224,5,27.5S4.776,28,4.5,28z" fill="#000000"/></g><g><path d="M10.5,25h-1C9.224,25,9,24.776,9,24.5S9.224,24,9.5,24h1c0.276,0,0.5,0.224,0.5,0.5S10.776,25,10.5,25z" fill="#000000"/></g><g><path d="M7.5,25h-1C6.224,25,6,24.776,6,24.5S6.224,24,6.5,24h1C7.776,24,8,24.224,8,24.5S7.776,25,7.5,25z" fill="#000000"/></g><g><path d="M4.5,25h-1C3.224,25,3,24.776,3,24.5S3.224,24,3.5,24h1C4.776,24,5,24.224,5,24.5S4.776,25,4.5,25z" fill="#000000"/></g><g><g><path d="M10.5,22h-1C9.224,22,9,21.776,9,21.5S9.224,21,9.5,21h1c0.276,0,0.5,0.224,0.5,0.5S10.776,22,10.5,22z       " fill="#000000"/></g><g><path d="M7.5,22h-1C6.224,22,6,21.776,6,21.5S6.224,21,6.5,21h1C7.776,21,8,21.224,8,21.5S7.776,22,7.5,22z" fill="#000000"/></g><g><path d="M4.5,22h-1C3.224,22,3,21.776,3,21.5S3.224,21,3.5,21h1C4.776,21,5,21.224,5,21.5S4.776,22,4.5,22z" fill="#000000"/></g></g><g id="XMLID_100_"><g id="XMLID_101_"><path d="M23.182,21.598c-0.128,0-0.256-0.049-0.354-0.146l-2.33-2.33c-0.682-0.682-1.018-1.452-0.997-2.289       c0.038-1.562,1.333-2.754,1.388-2.804c0.195-0.179,0.494-0.172,0.684,0.011l5.775,5.602c0.198,0.192,0.203,0.509,0.012,0.707       c-0.192,0.198-0.509,0.204-0.707,0.011l-5.407-5.244c-0.307,0.378-0.729,1.026-0.744,1.747       c-0.013,0.559,0.218,1.066,0.704,1.553l2.33,2.33c0.195,0.195,0.195,0.512,0,0.707C23.438,21.549,23.31,21.598,23.182,21.598z" fill="#000000"/></g></g><g id="XMLID_99_"><path d="M23.604,25.711c-0.137,0-0.272-0.056-0.371-0.166c-0.664-0.737-1.03-1.688-1.03-2.679      c0-0.727,0.197-1.439,0.572-2.06c0.144-0.237,0.453-0.311,0.686-0.17c0.237,0.143,0.313,0.45,0.17,0.687      c-0.279,0.464-0.428,0.998-0.428,1.543c0,0.743,0.274,1.457,0.772,2.01c0.186,0.205,0.169,0.521-0.036,0.706      C23.844,25.668,23.724,25.711,23.604,25.711z" fill="#000000"/></g><g id="XMLID_98_"><path d="M21,25h-8.5c-1.379,0-2.5-1.122-2.5-2.5v-2c0-0.276,0.224-0.5,0.5-0.5s0.5,0.224,0.5,0.5v2      c0,0.827,0.673,1.5,1.5,1.5H21c0.276,0,0.5,0.224,0.5,0.5S21.276,25,21,25z" fill="#000000"/></g><g id="XMLID_97_"><path d="M10.5,21c-0.276,0-0.5-0.224-0.5-0.5v-17C10,2.122,11.121,1,12.5,1h9C22.879,1,24,2.122,24,3.5v11      c0,0.276-0.224,0.5-0.5,0.5S23,14.776,23,14.5v-11C23,2.673,22.327,2,21.5,2h-9C11.673,2,11,2.673,11,3.5v17      C11,20.776,10.776,21,10.5,21z" fill="#000000"/></g><g id="XMLID_96_"><path d="M21.5,31c-0.276,0-0.5-0.224-0.5-0.5v-3.185c-0.459-0.238-0.884-0.549-1.266-0.928      c-0.195-0.194-0.197-0.511-0.003-0.707c0.195-0.196,0.512-0.198,0.708-0.003c0.375,0.373,0.799,0.663,1.26,0.864      C21.882,26.621,22,26.801,22,27v3.5C22,30.776,21.776,31,21.5,31z" fill="#000000"/></g><g id="XMLID_95_"><path d="M30.5,31c-0.276,0-0.5-0.224-0.5-0.5V19.438c0-0.424-0.26-1.062-0.557-1.363l-6.193-6.222      c-0.194-0.195-0.194-0.512,0.002-0.707c0.195-0.194,0.512-0.194,0.707,0.002l6.195,6.224C30.638,17.863,31,18.75,31,19.438V30.5      C31,30.776,30.776,31,30.5,31z" fill="#000000"/></g><g><path d="M17.5,23h-1c-0.276,0-0.5-0.224-0.5-0.5s0.224-0.5,0.5-0.5h1c0.276,0,0.5,0.224,0.5,0.5      S17.776,23,17.5,23z" fill="#000000"/></g><g><path d="M18.5,4h-3C15.224,4,15,3.776,15,3.5S15.224,3,15.5,3h3C18.776,3,19,3.224,19,3.5S18.776,4,18.5,4z" fill="#000000"/></g><g><path d="M17,14.5c-2.481,0-4.5-2.019-4.5-4.5s2.019-4.5,4.5-4.5c0.686,0,1.344,0.15,1.957,0.446      c0.248,0.12,0.353,0.419,0.232,0.668c-0.12,0.249-0.42,0.351-0.668,0.232C18.046,6.617,17.534,6.5,17,6.5      c-1.93,0-3.5,1.57-3.5,3.5s1.57,3.5,3.5,3.5c1.854,0,3.391-1.449,3.495-3.3c0.016-0.274,0.225-0.474,0.527-0.471      c0.275,0.016,0.486,0.251,0.471,0.527C21.358,12.636,19.385,14.5,17,14.5z" fill="#000000"/></g><g id="XMLID_136_"><path d="M17,11.7c-0.128,0-0.256-0.049-0.354-0.146l-1.5-1.5c-0.195-0.195-0.195-0.512,0-0.707      s0.512-0.195,0.707,0L17,10.493l3.146-3.146c0.195-0.195,0.512-0.195,0.707,0s0.195,0.512,0,0.707l-3.5,3.5      C17.256,11.651,17.128,11.7,17,11.7z" fill="#000000"/></g></g></g></g></svg>