<?xml version="1.0" standalone="no"?>
<!DOCTYPE svg PUBLIC "-//W3C//DTD SVG 20010904//EN"
 "http://www.w3.org/TR/2001/REC-SVG-20010904/DTD/svg10.dtd">
<svg version="1.0" xmlns="http://www.w3.org/2000/svg"
 width="162.000000pt" height="162.000000pt" viewBox="0 0 162.000000 162.000000"
 preserveAspectRatio="xMidYMid meet">
<metadata>
Created by potrace 1.14, written by Peter Selinger 2001-2017
</metadata>
<g transform="translate(0.000000,162.000000) scale(0.100000,-0.100000)"
fill="#000000" stroke="none">
<path d="M1281 1594 c-27 -19 -27 -39 1 -58 21 -15 24 -14 41 3 36 36 -1 84
-42 55z"/>
<path d="M280 1580 c-16 -16 -18 -25 -10 -40 11 -21 27 -25 54 -14 19 7 21 45
4 62 -17 17 -25 15 -48 -8z"/>
<path d="M1462 1548 c-7 -7 -12 -25 -12 -40 0 -51 81 -50 88 1 7 42 -46 69
-76 39z"/>
<path d="M66 1527 c-12 -9 -17 -23 -14 -41 4 -39 29 -53 62 -38 36 16 36 64 1
80 -32 15 -28 15 -49 -1z"/>
<path d="M406 1484 c-9 -8 -16 -24 -16 -34 0 -20 25 -50 41 -50 27 0 49 22 49
50 0 44 -44 64 -74 34z"/>
<path d="M1139 1479 c-24 -24 -24 -41 -1 -62 25 -22 45 -21 67 3 38 42 -25
100 -66 59z"/>
<path d="M1311 1405 c-34 -44 -13 -99 41 -109 59 -10 95 59 57 108 -27 35 -70
35 -98 1z"/>
<path d="M205 1398 c-35 -27 -31 -73 7 -101 23 -17 33 -19 55 -11 50 17 57
104 10 120 -39 13 -46 13 -72 -8z"/>
<path d="M580 1383 c-52 -19 -66 -77 -28 -113 39 -36 101 -16 111 37 4 20 -2
33 -23 55 -29 29 -34 30 -60 21z"/>
<path d="M978 1367 c-65 -51 2 -152 73 -110 16 10 29 22 30 28 0 5 2 18 4 27
8 43 -71 83 -107 55z"/>
<path d="M1548 1339 c-26 -15 -23 -58 5 -68 25 -10 43 2 49 33 4 25 -31 48
-54 35z"/>
<path d="M17 1323 c-22 -21 2 -72 31 -67 6 1 16 2 21 3 14 2 19 36 9 55 -9 16
-49 22 -61 9z"/>
<path d="M1154 1269 c-12 -4 -29 -18 -38 -31 -48 -69 26 -160 105 -128 32 14
58 61 52 95 -10 48 -72 82 -119 64z"/>
<path d="M375 1248 c-77 -68 8 -193 96 -141 39 23 53 65 35 108 -24 58 -85 73
-131 33z"/>
<path d="M767 1219 c-27 -16 -49 -73 -38 -101 27 -72 123 -82 157 -17 39 77
-46 160 -119 118z"/>
<path d="M1443 1219 c-39 -14 -41 -72 -2 -84 45 -15 81 24 60 63 -13 25 -31
31 -58 21z"/>
<path d="M133 1198 c-22 -28 -22 -49 -2 -69 30 -30 78 -11 79 33 0 37 -56 63
-77 36z"/>
<path d="M571 1102 c-77 -37 -82 -147 -9 -193 109 -68 227 76 139 170 -16 17
-37 31 -48 32 -10 0 -25 2 -34 4 -9 1 -31 -4 -48 -13z"/>
<path d="M969 1094 c-98 -40 -86 -184 17 -210 42 -11 97 12 118 47 58 97 -31
204 -135 163z"/>
<path d="M274 1068 c-33 -15 -44 -48 -29 -85 20 -47 66 -57 103 -23 54 51 -7
139 -74 108z"/>
<path d="M1288 1063 c-36 -43 -25 -94 25 -112 46 -17 94 33 81 85 -11 44 -77
60 -106 27z"/>
<path d="M742 910 c-46 -28 -67 -66 -66 -122 1 -43 5 -54 36 -85 27 -27 46
-36 79 -40 138 -14 204 164 90 243 -34 24 -103 26 -139 4z"/>
<path d="M422 869 c-28 -11 -55 -70 -46 -104 8 -32 54 -65 85 -61 40 4 57 16
73 51 35 72 -36 144 -112 114z"/>
<path d="M1144 870 c-28 -11 -54 -48 -54 -77 0 -78 81 -116 141 -66 71 60 -1
179 -87 143z"/>
<path d="M983 715 c-48 -20 -68 -61 -64 -127 2 -30 51 -77 87 -84 116 -22 183
129 88 199 -32 24 -72 28 -111 12z"/>
<path d="M579 682 c-64 -32 -85 -119 -41 -170 92 -104 248 5 182 127 -25 48
-91 68 -141 43z"/>
<path d="M1309 663 c-21 -5 -45 -50 -41 -77 9 -55 74 -75 112 -34 22 24 24 36
11 71 -10 25 -53 46 -82 40z"/>
<path d="M258 633 c-33 -39 -29 -80 11 -109 35 -27 101 13 101 60 0 53 -79 87
-112 49z"/>
<path d="M787 500 c-50 -39 -43 -115 14 -143 37 -17 71 -12 98 17 73 77 -28
192 -112 126z"/>
<path d="M394 500 c-23 -9 -54 -52 -54 -75 0 -9 6 -28 14 -44 51 -97 194 -26
151 75 -19 46 -63 64 -111 44z"/>
<path d="M1147 498 c-70 -54 -38 -158 49 -158 45 0 74 27 81 75 4 34 1 44 -22
68 -30 30 -79 36 -108 15z"/>
<path d="M1436 474 c-9 -8 -16 -24 -16 -34 0 -22 25 -50 45 -50 21 0 45 29 45
54 0 43 -44 61 -74 30z"/>
<path d="M130 454 c-14 -37 3 -64 41 -64 37 0 58 35 40 69 -17 32 -68 29 -81
-5z"/>
<path d="M1015 362 c-49 -11 -66 -48 -43 -97 22 -48 100 -41 119 11 14 41 -34
96 -76 86z"/>
<path d="M560 330 c-57 -57 21 -148 84 -99 32 25 38 64 14 94 -24 31 -70 33
-98 5z"/>
<path d="M1554 342 c-36 -24 -12 -79 30 -68 19 5 26 13 26 29 0 37 -29 57 -56
39z"/>
<path d="M38 329 c-24 -13 -23 -51 2 -67 17 -10 23 -9 41 9 23 23 22 37 -7 55
-13 9 -24 10 -36 3z"/>
<path d="M233 309 c-44 -16 -56 -76 -23 -109 57 -57 149 21 99 84 -22 28 -47
36 -76 25z"/>
<path d="M1325 295 c-29 -28 -32 -55 -7 -83 28 -35 67 -38 96 -9 30 30 27 72
-5 100 -29 24 -55 21 -84 -8z"/>
<path d="M1145 186 c-30 -45 16 -91 61 -61 28 18 31 46 8 69 -22 23 -51 20
-69 -8z"/>
<path d="M414 179 c-17 -19 -17 -23 -3 -47 20 -37 53 -40 75 -8 15 23 15 28 1
49 -19 29 -50 31 -73 6z"/>
<path d="M79 139 c-22 -22 -23 -32 -9 -60 14 -26 66 -26 80 0 25 48 -33 98
-71 60z"/>
<path d="M1480 132 c-30 -25 -21 -69 16 -78 51 -13 78 50 36 84 -21 16 -26 15
-52 -6z"/>
<path d="M1295 77 c-27 -20 -13 -67 20 -67 38 0 53 51 21 72 -15 11 -20 10
-41 -5z"/>
<path d="M292 68 c-25 -25 -6 -68 30 -68 9 0 22 9 28 20 22 40 -26 80 -58 48z"/>
</g>
</svg>
